<mxfile host="65bd71144e">
    <diagram id="Sp49NLmYLnaFWZMvKvvO" name="Page-1">
        <mxGraphModel dx="629" dy="464" grid="1" gridSize="10" guides="1" tooltips="1" connect="1" arrows="1" fold="1" page="1" pageScale="1" pageWidth="850" pageHeight="1100" math="0" shadow="0">
            <root>
                <mxCell id="0"/>
                <mxCell id="1" parent="0"/>
                <UserObject label="%name%&lt;br&gt;&lt;i style=&quot;color:gray;&quot;&gt;%position%&lt;/i&gt;&lt;br&gt;&lt;a href=&quot;mailto:%email%&quot;&gt;Email&lt;/a&gt;" name="Tessa Miller" position="CFO" location="Office 1" email="me@example.com" placeholders="1" link="https://www.draw.io" id="2">
                    <mxCell style="label;image=https://cdn3.iconfinder.com/data/icons/user-avatars-1/512/users-3-128.png;whiteSpace=wrap;html=1;rounded=1;fillColor=#dae8fc;strokeColor=#6c8ebf;" vertex="1" parent="1">
                        <mxGeometry x="139" y="20" width="168" height="88" as="geometry"/>
                    </mxCell>
                </UserObject>
                <UserObject label="%name%&lt;br&gt;&lt;i style=&quot;color:gray;&quot;&gt;%position%&lt;/i&gt;&lt;br&gt;&lt;a href=&quot;mailto:%email%&quot;&gt;Email&lt;/a&gt;" name="Edward Morrison" position="Brand Manager" location="Office 2" email="me@example.com" placeholders="1" link="https://www.draw.io" id="3">
                    <mxCell style="label;image=https://cdn3.iconfinder.com/data/icons/user-avatars-1/512/users-10-3-128.png;whiteSpace=wrap;html=1;rounded=1;fillColor=#d5e8d4;strokeColor=#82b366;" vertex="1" parent="1">
                        <mxGeometry x="20" y="396" width="198" height="88" as="geometry"/>
                    </mxCell>
                </UserObject>
                <UserObject label="%name%&lt;br&gt;&lt;i style=&quot;color:gray;&quot;&gt;%position%&lt;/i&gt;&lt;br&gt;&lt;a href=&quot;mailto:%email%&quot;&gt;Email&lt;/a&gt;" name="Alison Donovan" position="System Admin" location="Office 3" email="me@example.com" placeholders="1" link="https://www.draw.io" id="4">
                    <mxCell style="label;image=https://cdn3.iconfinder.com/data/icons/user-avatars-1/512/users-2-128.png;whiteSpace=wrap;html=1;rounded=1;fillColor=#d5e8d4;strokeColor=#82b366;" vertex="1" parent="1">
                        <mxGeometry x="124" y="208" width="198" height="88" as="geometry"/>
                    </mxCell>
                </UserObject>
                <UserObject label="%name%&lt;br&gt;&lt;i style=&quot;color:gray;&quot;&gt;%position%&lt;/i&gt;&lt;br&gt;&lt;a href=&quot;mailto:%email%&quot;&gt;Email&lt;/a&gt;" name="Evan Valet" position="HR Director" location="Office 4" email="me@example.com" placeholders="1" link="https://www.draw.io" id="5">
                    <mxCell style="label;image=https://cdn3.iconfinder.com/data/icons/user-avatars-1/512/users-9-2-128.png;whiteSpace=wrap;html=1;rounded=1;fillColor=#d5e8d4;strokeColor=#82b366;" vertex="1" parent="1">
                        <mxGeometry x="258" y="396" width="168" height="88" as="geometry"/>
                    </mxCell>
                </UserObject>
                <mxCell id="6" value="manages" style="curved=1;endArrow=blockThin;endFill=1;fontSize=11;" edge="1" parent="1" source="2" target="3">
                    <mxGeometry relative="1" as="geometry">
                        <Array as="points">
                            <mxPoint x="170.33333333333334" y="120"/>
                            <mxPoint x="84" y="158"/>
                            <mxPoint x="84" y="346"/>
                            <mxPoint x="72" y="384"/>
                        </Array>
                    </mxGeometry>
                </mxCell>
                <mxCell id="7" value="manages" style="curved=1;endArrow=blockThin;endFill=1;fontSize=11;" edge="1" parent="1" source="2" target="4">
                    <mxGeometry relative="1" as="geometry">
                        <Array as="points">
                            <mxPoint x="223" y="122"/>
                            <mxPoint x="223" y="196"/>
                        </Array>
                    </mxGeometry>
                </mxCell>
                <mxCell id="8" value="manages" style="curved=1;endArrow=blockThin;endFill=1;fontSize=11;" edge="1" parent="1" source="2" target="5">
                    <mxGeometry relative="1" as="geometry">
                        <Array as="points">
                            <mxPoint x="275.66666666666663" y="120"/>
                            <mxPoint x="362" y="158"/>
                            <mxPoint x="362" y="346"/>
                            <mxPoint x="381.5" y="384"/>
                        </Array>
                    </mxGeometry>
                </mxCell>
                <mxCell id="9" value="" style="curved=1;fontSize=11;" edge="1" parent="1" source="4" target="3">
                    <mxGeometry relative="1" as="geometry">
                        <Array as="points">
                            <mxPoint x="176" y="308"/>
                            <mxPoint x="166" y="384"/>
                        </Array>
                    </mxGeometry>
                </mxCell>
                <mxCell id="10" value="" style="curved=1;fontSize=11;" edge="1" parent="1" source="4" target="5">
                    <mxGeometry relative="1" as="geometry">
                        <Array as="points">
                            <mxPoint x="270" y="308"/>
                            <mxPoint x="302.5" y="384"/>
                        </Array>
                    </mxGeometry>
                </mxCell>
            </root>
        </mxGraphModel>
    </diagram>
</mxfile>